<mxfile host="app.diagrams.net" agent="Mozilla/5.0 (Windows NT 10.0; Win64; x64) AppleWebKit/537.36 (KHTML, like Gecko) Chrome/129.0.0.0 Safari/537.36" version="24.7.17">
  <diagram id="R2lEEEUBdFMjLlhIrx00" name="Page-1">
    <mxGraphModel dx="1077" dy="559" grid="1" gridSize="10" guides="1" tooltips="1" connect="1" arrows="1" fold="1" page="1" pageScale="1" pageWidth="850" pageHeight="1100" math="0" shadow="0" extFonts="Permanent Marker^https://fonts.googleapis.com/css?family=Permanent+Marker">
      <root>
        <mxCell id="0" />
        <mxCell id="1" parent="0" />
        <mxCell id="_hXt0ZtncEYP2eF8u2ab-262" value="" style="html=1;whiteSpace=wrap;" vertex="1" parent="1">
          <mxGeometry x="150" y="720" width="380" height="330" as="geometry" />
        </mxCell>
        <mxCell id="_hXt0ZtncEYP2eF8u2ab-240" value="" style="html=1;whiteSpace=wrap;" vertex="1" parent="1">
          <mxGeometry x="30" y="220" width="490" height="340" as="geometry" />
        </mxCell>
        <mxCell id="_hXt0ZtncEYP2eF8u2ab-137" value="" style="html=1;whiteSpace=wrap;" vertex="1" parent="1">
          <mxGeometry x="910" y="160" width="550" height="440" as="geometry" />
        </mxCell>
        <mxCell id="_hXt0ZtncEYP2eF8u2ab-2" value="&lt;b&gt;Sensors&lt;/b&gt;" style="html=1;dropTarget=0;whiteSpace=wrap;" vertex="1" parent="1">
          <mxGeometry x="1030" y="90" width="180" height="60" as="geometry" />
        </mxCell>
        <mxCell id="_hXt0ZtncEYP2eF8u2ab-3" value="" style="shape=module;jettyWidth=8;jettyHeight=4;" vertex="1" parent="_hXt0ZtncEYP2eF8u2ab-2">
          <mxGeometry x="1" width="20" height="20" relative="1" as="geometry">
            <mxPoint x="-27" y="7" as="offset" />
          </mxGeometry>
        </mxCell>
        <mxCell id="_hXt0ZtncEYP2eF8u2ab-5" value="" style="rounded=0;orthogonalLoop=1;jettySize=auto;html=1;endArrow=halfCircle;endFill=0;endSize=6;strokeWidth=1;sketch=0;exitX=0.5;exitY=0;exitDx=0;exitDy=0;" edge="1" parent="1" source="_hXt0ZtncEYP2eF8u2ab-12">
          <mxGeometry relative="1" as="geometry">
            <mxPoint x="1200" y="120" as="sourcePoint" />
            <mxPoint x="1060" y="180" as="targetPoint" />
            <Array as="points">
              <mxPoint x="1020" y="180" />
            </Array>
          </mxGeometry>
        </mxCell>
        <mxCell id="_hXt0ZtncEYP2eF8u2ab-6" value="" style="rounded=0;orthogonalLoop=1;jettySize=auto;html=1;endArrow=oval;endFill=0;sketch=0;sourcePerimeterSpacing=0;targetPerimeterSpacing=0;endSize=10;exitX=1;exitY=0.5;exitDx=0;exitDy=0;entryX=0.58;entryY=0.693;entryDx=0;entryDy=0;entryPerimeter=0;" edge="1" target="_hXt0ZtncEYP2eF8u2ab-7" parent="1" source="_hXt0ZtncEYP2eF8u2ab-7">
          <mxGeometry relative="1" as="geometry">
            <mxPoint x="1250" y="385" as="sourcePoint" />
            <mxPoint x="1150" y="120" as="targetPoint" />
          </mxGeometry>
        </mxCell>
        <mxCell id="_hXt0ZtncEYP2eF8u2ab-8" value="" style="rounded=0;orthogonalLoop=1;jettySize=auto;html=1;endArrow=oval;endFill=0;sketch=0;sourcePerimeterSpacing=0;targetPerimeterSpacing=0;endSize=10;exitX=0.5;exitY=1;exitDx=0;exitDy=0;" edge="1" parent="1" source="_hXt0ZtncEYP2eF8u2ab-2">
          <mxGeometry relative="1" as="geometry">
            <mxPoint x="1130" y="170" as="sourcePoint" />
            <mxPoint x="1060" y="180" as="targetPoint" />
            <Array as="points">
              <mxPoint x="1120" y="180" />
            </Array>
          </mxGeometry>
        </mxCell>
        <mxCell id="_hXt0ZtncEYP2eF8u2ab-7" value="" style="ellipse;whiteSpace=wrap;html=1;align=center;aspect=fixed;fillColor=none;strokeColor=none;resizable=0;perimeter=centerPerimeter;rotatable=0;allowArrows=0;points=[];outlineConnect=1;" vertex="1" parent="1">
          <mxGeometry x="1140" y="115" width="10" height="10" as="geometry" />
        </mxCell>
        <mxCell id="_hXt0ZtncEYP2eF8u2ab-12" value="&lt;div&gt;«interface»&lt;br&gt;&lt;/div&gt;&lt;b&gt;iMetrics&lt;/b&gt;" style="html=1;dropTarget=0;whiteSpace=wrap;" vertex="1" parent="1">
          <mxGeometry x="930" y="200" width="180" height="60" as="geometry" />
        </mxCell>
        <mxCell id="_hXt0ZtncEYP2eF8u2ab-13" value="" style="shape=module;jettyWidth=8;jettyHeight=4;" vertex="1" parent="_hXt0ZtncEYP2eF8u2ab-12">
          <mxGeometry x="1" width="20" height="20" relative="1" as="geometry">
            <mxPoint x="-27" y="7" as="offset" />
          </mxGeometry>
        </mxCell>
        <mxCell id="_hXt0ZtncEYP2eF8u2ab-16" value="" style="ellipse;whiteSpace=wrap;html=1;align=center;aspect=fixed;fillColor=none;strokeColor=none;resizable=0;perimeter=centerPerimeter;rotatable=0;allowArrows=0;points=[];outlineConnect=1;" vertex="1" parent="1">
          <mxGeometry x="1255" y="270" width="10" height="10" as="geometry" />
        </mxCell>
        <mxCell id="_hXt0ZtncEYP2eF8u2ab-17" value="&lt;div&gt;«interface»&lt;br&gt;&lt;/div&gt;&lt;b&gt;iExercises&lt;/b&gt;" style="html=1;dropTarget=0;whiteSpace=wrap;" vertex="1" parent="1">
          <mxGeometry x="1140" y="200" width="180" height="60" as="geometry" />
        </mxCell>
        <mxCell id="_hXt0ZtncEYP2eF8u2ab-18" value="" style="shape=module;jettyWidth=8;jettyHeight=4;" vertex="1" parent="_hXt0ZtncEYP2eF8u2ab-17">
          <mxGeometry x="1" width="20" height="20" relative="1" as="geometry">
            <mxPoint x="-27" y="7" as="offset" />
          </mxGeometry>
        </mxCell>
        <mxCell id="_hXt0ZtncEYP2eF8u2ab-20" value="" style="endArrow=none;html=1;rounded=0;entryX=0.5;entryY=1;entryDx=0;entryDy=0;" edge="1" parent="1" target="_hXt0ZtncEYP2eF8u2ab-2">
          <mxGeometry width="50" height="50" relative="1" as="geometry">
            <mxPoint x="1120" y="180" as="sourcePoint" />
            <mxPoint x="1220" y="200" as="targetPoint" />
          </mxGeometry>
        </mxCell>
        <mxCell id="_hXt0ZtncEYP2eF8u2ab-25" value="" style="rounded=0;orthogonalLoop=1;jettySize=auto;html=1;endArrow=oval;endFill=0;sketch=0;sourcePerimeterSpacing=0;targetPerimeterSpacing=0;endSize=10;" edge="1" parent="1">
          <mxGeometry relative="1" as="geometry">
            <mxPoint x="1120" y="180" as="sourcePoint" />
            <mxPoint x="1180" y="180" as="targetPoint" />
          </mxGeometry>
        </mxCell>
        <mxCell id="_hXt0ZtncEYP2eF8u2ab-27" value="" style="ellipse;whiteSpace=wrap;html=1;align=center;aspect=fixed;fillColor=none;strokeColor=none;resizable=0;perimeter=centerPerimeter;rotatable=0;allowArrows=0;points=[];outlineConnect=1;" vertex="1" parent="1">
          <mxGeometry x="1210" y="210" width="10" height="10" as="geometry" />
        </mxCell>
        <mxCell id="_hXt0ZtncEYP2eF8u2ab-30" value="&lt;b&gt;RuleSystem&lt;/b&gt;" style="html=1;dropTarget=0;whiteSpace=wrap;" vertex="1" parent="1">
          <mxGeometry x="930" y="320" width="180" height="60" as="geometry" />
        </mxCell>
        <mxCell id="_hXt0ZtncEYP2eF8u2ab-31" value="" style="shape=module;jettyWidth=8;jettyHeight=4;" vertex="1" parent="_hXt0ZtncEYP2eF8u2ab-30">
          <mxGeometry x="1" width="20" height="20" relative="1" as="geometry">
            <mxPoint x="-27" y="7" as="offset" />
          </mxGeometry>
        </mxCell>
        <mxCell id="_hXt0ZtncEYP2eF8u2ab-33" value="" style="rounded=0;orthogonalLoop=1;jettySize=auto;html=1;endArrow=oval;endFill=0;sketch=0;sourcePerimeterSpacing=0;targetPerimeterSpacing=0;endSize=10;" edge="1" parent="1">
          <mxGeometry relative="1" as="geometry">
            <mxPoint x="1130" y="280" as="sourcePoint" />
            <mxPoint x="1130" y="300" as="targetPoint" />
          </mxGeometry>
        </mxCell>
        <mxCell id="_hXt0ZtncEYP2eF8u2ab-35" value="" style="rounded=0;orthogonalLoop=1;jettySize=auto;html=1;endArrow=halfCircle;endFill=0;endSize=6;strokeWidth=1;sketch=0;exitX=0.5;exitY=0;exitDx=0;exitDy=0;" edge="1" parent="1" source="_hXt0ZtncEYP2eF8u2ab-30">
          <mxGeometry relative="1" as="geometry">
            <mxPoint x="1090" y="330" as="sourcePoint" />
            <mxPoint x="1130" y="300" as="targetPoint" />
            <Array as="points">
              <mxPoint x="1020" y="300" />
            </Array>
          </mxGeometry>
        </mxCell>
        <mxCell id="_hXt0ZtncEYP2eF8u2ab-37" value="" style="endArrow=none;html=1;rounded=0;entryX=0.528;entryY=0.998;entryDx=0;entryDy=0;entryPerimeter=0;exitX=0.5;exitY=1;exitDx=0;exitDy=0;" edge="1" parent="1" source="_hXt0ZtncEYP2eF8u2ab-12" target="_hXt0ZtncEYP2eF8u2ab-17">
          <mxGeometry width="50" height="50" relative="1" as="geometry">
            <mxPoint x="1010" y="290" as="sourcePoint" />
            <mxPoint x="1200" y="300" as="targetPoint" />
            <Array as="points">
              <mxPoint x="1020" y="280" />
              <mxPoint x="1235" y="280" />
            </Array>
          </mxGeometry>
        </mxCell>
        <mxCell id="_hXt0ZtncEYP2eF8u2ab-39" value="App" style="text;align=center;fontStyle=1;verticalAlign=middle;spacingLeft=3;spacingRight=3;strokeColor=none;rotatable=0;points=[[0,0.5],[1,0.5]];portConstraint=eastwest;html=1;" vertex="1" parent="1">
          <mxGeometry x="900" y="160" width="80" height="26" as="geometry" />
        </mxCell>
        <mxCell id="_hXt0ZtncEYP2eF8u2ab-40" value="" style="rounded=0;orthogonalLoop=1;jettySize=auto;html=1;endArrow=halfCircle;endFill=0;endSize=6;strokeWidth=1;sketch=0;" edge="1" parent="1" source="_hXt0ZtncEYP2eF8u2ab-17">
          <mxGeometry relative="1" as="geometry">
            <mxPoint x="1250" y="165" as="sourcePoint" />
            <mxPoint x="1180" y="180" as="targetPoint" />
            <Array as="points">
              <mxPoint x="1230" y="180" />
              <mxPoint x="1210" y="180" />
            </Array>
          </mxGeometry>
        </mxCell>
        <mxCell id="_hXt0ZtncEYP2eF8u2ab-48" value="&lt;b&gt;LegitSport Server&lt;/b&gt;" style="html=1;dropTarget=0;whiteSpace=wrap;" vertex="1" parent="1">
          <mxGeometry x="1500" y="200" width="180" height="60" as="geometry" />
        </mxCell>
        <mxCell id="_hXt0ZtncEYP2eF8u2ab-49" value="" style="shape=module;jettyWidth=8;jettyHeight=4;" vertex="1" parent="_hXt0ZtncEYP2eF8u2ab-48">
          <mxGeometry x="1" width="20" height="20" relative="1" as="geometry">
            <mxPoint x="-27" y="7" as="offset" />
          </mxGeometry>
        </mxCell>
        <mxCell id="_hXt0ZtncEYP2eF8u2ab-50" value="&lt;b&gt;User&lt;/b&gt;" style="shape=umlActor;verticalLabelPosition=bottom;verticalAlign=top;html=1;" vertex="1" parent="1">
          <mxGeometry x="1275" y="630" width="30" height="60" as="geometry" />
        </mxCell>
        <mxCell id="_hXt0ZtncEYP2eF8u2ab-56" value="" style="ellipse;whiteSpace=wrap;html=1;align=center;aspect=fixed;fillColor=none;strokeColor=none;resizable=0;perimeter=centerPerimeter;rotatable=0;allowArrows=0;points=[];outlineConnect=1;" vertex="1" parent="1">
          <mxGeometry x="1155" y="40" width="10" height="10" as="geometry" />
        </mxCell>
        <mxCell id="_hXt0ZtncEYP2eF8u2ab-60" value="&lt;b&gt;ExercisesAI&lt;/b&gt;" style="html=1;dropTarget=0;whiteSpace=wrap;" vertex="1" parent="1">
          <mxGeometry x="1040" y="420" width="180" height="60" as="geometry" />
        </mxCell>
        <mxCell id="_hXt0ZtncEYP2eF8u2ab-61" value="" style="shape=module;jettyWidth=8;jettyHeight=4;" vertex="1" parent="_hXt0ZtncEYP2eF8u2ab-60">
          <mxGeometry x="1" width="20" height="20" relative="1" as="geometry">
            <mxPoint x="-27" y="7" as="offset" />
          </mxGeometry>
        </mxCell>
        <mxCell id="_hXt0ZtncEYP2eF8u2ab-62" value="" style="rounded=0;orthogonalLoop=1;jettySize=auto;html=1;endArrow=halfCircle;endFill=0;endSize=6;strokeWidth=1;sketch=0;exitX=0.5;exitY=0;exitDx=0;exitDy=0;" edge="1" parent="1" source="_hXt0ZtncEYP2eF8u2ab-60">
          <mxGeometry relative="1" as="geometry">
            <mxPoint x="1310" y="315" as="sourcePoint" />
            <mxPoint x="1130" y="400" as="targetPoint" />
          </mxGeometry>
        </mxCell>
        <mxCell id="_hXt0ZtncEYP2eF8u2ab-63" value="" style="rounded=0;orthogonalLoop=1;jettySize=auto;html=1;endArrow=oval;endFill=0;sketch=0;sourcePerimeterSpacing=0;targetPerimeterSpacing=0;endSize=10;exitX=0.5;exitY=1;exitDx=0;exitDy=0;" edge="1" parent="1" source="_hXt0ZtncEYP2eF8u2ab-30">
          <mxGeometry relative="1" as="geometry">
            <mxPoint x="1270" y="315" as="sourcePoint" />
            <mxPoint x="1130" y="400" as="targetPoint" />
            <Array as="points">
              <mxPoint x="1020" y="400" />
            </Array>
          </mxGeometry>
        </mxCell>
        <mxCell id="_hXt0ZtncEYP2eF8u2ab-64" value="" style="ellipse;whiteSpace=wrap;html=1;align=center;aspect=fixed;fillColor=none;strokeColor=none;resizable=0;perimeter=centerPerimeter;rotatable=0;allowArrows=0;points=[];outlineConnect=1;" vertex="1" parent="1">
          <mxGeometry x="1285" y="310" width="10" height="10" as="geometry" />
        </mxCell>
        <mxCell id="_hXt0ZtncEYP2eF8u2ab-73" value="" style="strokeWidth=2;html=1;shape=mxgraph.flowchart.database;whiteSpace=wrap;" vertex="1" parent="1">
          <mxGeometry x="1165" y="320" width="60" height="60" as="geometry" />
        </mxCell>
        <mxCell id="_hXt0ZtncEYP2eF8u2ab-74" value="UserMetrics&lt;div&gt;Local&amp;nbsp;&lt;span style=&quot;background-color: initial;&quot;&gt;DB&lt;/span&gt;&lt;/div&gt;" style="text;align=center;fontStyle=1;verticalAlign=middle;spacingLeft=3;spacingRight=3;strokeColor=none;rotatable=0;points=[[0,0.5],[1,0.5]];portConstraint=eastwest;html=1;" vertex="1" parent="1">
          <mxGeometry x="1155" y="384" width="80" height="26" as="geometry" />
        </mxCell>
        <mxCell id="_hXt0ZtncEYP2eF8u2ab-75" value="&lt;b&gt;DataEncrypter&lt;/b&gt;" style="html=1;dropTarget=0;whiteSpace=wrap;" vertex="1" parent="1">
          <mxGeometry x="1265" y="320" width="180" height="60" as="geometry" />
        </mxCell>
        <mxCell id="_hXt0ZtncEYP2eF8u2ab-76" value="" style="shape=module;jettyWidth=8;jettyHeight=4;" vertex="1" parent="_hXt0ZtncEYP2eF8u2ab-75">
          <mxGeometry x="1" width="20" height="20" relative="1" as="geometry">
            <mxPoint x="-27" y="7" as="offset" />
          </mxGeometry>
        </mxCell>
        <mxCell id="_hXt0ZtncEYP2eF8u2ab-78" value="" style="ellipse;whiteSpace=wrap;html=1;align=center;aspect=fixed;fillColor=none;strokeColor=none;resizable=0;perimeter=centerPerimeter;rotatable=0;allowArrows=0;points=[];outlineConnect=1;" vertex="1" parent="1">
          <mxGeometry x="1260" y="360" width="10" height="10" as="geometry" />
        </mxCell>
        <mxCell id="_hXt0ZtncEYP2eF8u2ab-79" value="" style="rounded=0;orthogonalLoop=1;jettySize=auto;html=1;endArrow=halfCircle;endFill=0;endSize=6;strokeWidth=1;sketch=0;exitX=0;exitY=0.5;exitDx=0;exitDy=0;" edge="1" parent="1" source="_hXt0ZtncEYP2eF8u2ab-75">
          <mxGeometry relative="1" as="geometry">
            <mxPoint x="1300" y="365" as="sourcePoint" />
            <mxPoint x="1240" y="350" as="targetPoint" />
          </mxGeometry>
        </mxCell>
        <mxCell id="_hXt0ZtncEYP2eF8u2ab-80" value="" style="rounded=0;orthogonalLoop=1;jettySize=auto;html=1;endArrow=oval;endFill=0;sketch=0;sourcePerimeterSpacing=0;targetPerimeterSpacing=0;endSize=10;exitX=1;exitY=0.5;exitDx=0;exitDy=0;exitPerimeter=0;" edge="1" parent="1" source="_hXt0ZtncEYP2eF8u2ab-73">
          <mxGeometry relative="1" as="geometry">
            <mxPoint x="1260" y="365" as="sourcePoint" />
            <mxPoint x="1240" y="350" as="targetPoint" />
          </mxGeometry>
        </mxCell>
        <mxCell id="_hXt0ZtncEYP2eF8u2ab-81" value="" style="ellipse;whiteSpace=wrap;html=1;align=center;aspect=fixed;fillColor=none;strokeColor=none;resizable=0;perimeter=centerPerimeter;rotatable=0;allowArrows=0;points=[];outlineConnect=1;" vertex="1" parent="1">
          <mxGeometry x="1275" y="360" width="10" height="10" as="geometry" />
        </mxCell>
        <mxCell id="_hXt0ZtncEYP2eF8u2ab-83" value="" style="rounded=0;orthogonalLoop=1;jettySize=auto;html=1;endArrow=halfCircle;endFill=0;endSize=6;strokeWidth=1;sketch=0;exitX=0;exitY=0.5;exitDx=0;exitDy=0;" edge="1" parent="1" source="_hXt0ZtncEYP2eF8u2ab-48">
          <mxGeometry relative="1" as="geometry">
            <mxPoint x="1320" y="435" as="sourcePoint" />
            <mxPoint x="1470" y="230" as="targetPoint" />
            <Array as="points" />
          </mxGeometry>
        </mxCell>
        <mxCell id="_hXt0ZtncEYP2eF8u2ab-84" value="" style="rounded=0;orthogonalLoop=1;jettySize=auto;html=1;endArrow=oval;endFill=0;sketch=0;sourcePerimeterSpacing=0;targetPerimeterSpacing=0;endSize=10;exitX=0.5;exitY=0;exitDx=0;exitDy=0;" edge="1" parent="1" source="_hXt0ZtncEYP2eF8u2ab-75">
          <mxGeometry relative="1" as="geometry">
            <mxPoint x="1280" y="435" as="sourcePoint" />
            <mxPoint x="1470" y="230" as="targetPoint" />
            <Array as="points">
              <mxPoint x="1355" y="230" />
            </Array>
          </mxGeometry>
        </mxCell>
        <mxCell id="_hXt0ZtncEYP2eF8u2ab-85" value="" style="ellipse;whiteSpace=wrap;html=1;align=center;aspect=fixed;fillColor=none;strokeColor=none;resizable=0;perimeter=centerPerimeter;rotatable=0;allowArrows=0;points=[];outlineConnect=1;" vertex="1" parent="1">
          <mxGeometry x="1295" y="430" width="10" height="10" as="geometry" />
        </mxCell>
        <mxCell id="_hXt0ZtncEYP2eF8u2ab-86" value="" style="rounded=0;orthogonalLoop=1;jettySize=auto;html=1;endArrow=halfCircle;endFill=0;endSize=6;strokeWidth=1;sketch=0;exitX=0.5;exitY=0;exitDx=0;exitDy=0;exitPerimeter=0;" edge="1" parent="1" source="_hXt0ZtncEYP2eF8u2ab-73">
          <mxGeometry relative="1" as="geometry">
            <mxPoint x="1390" y="405" as="sourcePoint" />
            <mxPoint x="1130" y="300" as="targetPoint" />
            <Array as="points">
              <mxPoint x="1195" y="300" />
            </Array>
          </mxGeometry>
        </mxCell>
        <mxCell id="_hXt0ZtncEYP2eF8u2ab-89" value="&lt;b&gt;AppFrontend&lt;/b&gt;" style="html=1;dropTarget=0;whiteSpace=wrap;" vertex="1" parent="1">
          <mxGeometry x="1040" y="520" width="180" height="60" as="geometry" />
        </mxCell>
        <mxCell id="_hXt0ZtncEYP2eF8u2ab-90" value="" style="shape=module;jettyWidth=8;jettyHeight=4;" vertex="1" parent="_hXt0ZtncEYP2eF8u2ab-89">
          <mxGeometry x="1" width="20" height="20" relative="1" as="geometry">
            <mxPoint x="-27" y="7" as="offset" />
          </mxGeometry>
        </mxCell>
        <mxCell id="_hXt0ZtncEYP2eF8u2ab-91" value="" style="rounded=0;orthogonalLoop=1;jettySize=auto;html=1;endArrow=halfCircle;endFill=0;endSize=6;strokeWidth=1;sketch=0;exitX=0.5;exitY=0;exitDx=0;exitDy=0;" edge="1" parent="1" source="_hXt0ZtncEYP2eF8u2ab-89">
          <mxGeometry relative="1" as="geometry">
            <mxPoint x="1330" y="605" as="sourcePoint" />
            <mxPoint x="1130" y="500" as="targetPoint" />
          </mxGeometry>
        </mxCell>
        <mxCell id="_hXt0ZtncEYP2eF8u2ab-92" value="" style="rounded=0;orthogonalLoop=1;jettySize=auto;html=1;endArrow=oval;endFill=0;sketch=0;sourcePerimeterSpacing=0;targetPerimeterSpacing=0;endSize=10;exitX=0.5;exitY=1;exitDx=0;exitDy=0;" edge="1" parent="1" source="_hXt0ZtncEYP2eF8u2ab-60">
          <mxGeometry relative="1" as="geometry">
            <mxPoint x="1290" y="605" as="sourcePoint" />
            <mxPoint x="1130" y="500" as="targetPoint" />
          </mxGeometry>
        </mxCell>
        <mxCell id="_hXt0ZtncEYP2eF8u2ab-95" value="" style="rounded=0;orthogonalLoop=1;jettySize=auto;html=1;endArrow=halfCircle;endFill=0;endSize=6;strokeWidth=1;sketch=0;exitX=0.5;exitY=0;exitDx=0;exitDy=0;" edge="1" parent="1" source="_hXt0ZtncEYP2eF8u2ab-98">
          <mxGeometry relative="1" as="geometry">
            <mxPoint x="1590" y="500" as="sourcePoint" />
            <mxPoint x="1590" y="290" as="targetPoint" />
            <Array as="points">
              <mxPoint x="1590" y="290" />
            </Array>
          </mxGeometry>
        </mxCell>
        <mxCell id="_hXt0ZtncEYP2eF8u2ab-96" value="" style="rounded=0;orthogonalLoop=1;jettySize=auto;html=1;endArrow=oval;endFill=0;sketch=0;sourcePerimeterSpacing=0;targetPerimeterSpacing=0;endSize=10;exitX=0.5;exitY=1;exitDx=0;exitDy=0;" edge="1" parent="1" source="_hXt0ZtncEYP2eF8u2ab-48">
          <mxGeometry relative="1" as="geometry">
            <mxPoint x="1597.5" y="310" as="sourcePoint" />
            <mxPoint x="1590" y="290" as="targetPoint" />
          </mxGeometry>
        </mxCell>
        <mxCell id="_hXt0ZtncEYP2eF8u2ab-98" value="&lt;b&gt;DataInterpreter&lt;/b&gt;" style="html=1;dropTarget=0;whiteSpace=wrap;" vertex="1" parent="1">
          <mxGeometry x="1500" y="320" width="180" height="60" as="geometry" />
        </mxCell>
        <mxCell id="_hXt0ZtncEYP2eF8u2ab-99" value="" style="shape=module;jettyWidth=8;jettyHeight=4;" vertex="1" parent="_hXt0ZtncEYP2eF8u2ab-98">
          <mxGeometry x="1" width="20" height="20" relative="1" as="geometry">
            <mxPoint x="-27" y="7" as="offset" />
          </mxGeometry>
        </mxCell>
        <mxCell id="_hXt0ZtncEYP2eF8u2ab-100" value="" style="rounded=0;orthogonalLoop=1;jettySize=auto;html=1;endArrow=halfCircle;endFill=0;endSize=6;strokeWidth=1;sketch=0;" edge="1" parent="1">
          <mxGeometry relative="1" as="geometry">
            <mxPoint x="1260" y="650" as="sourcePoint" />
            <mxPoint x="1180" y="650" as="targetPoint" />
          </mxGeometry>
        </mxCell>
        <mxCell id="_hXt0ZtncEYP2eF8u2ab-102" value="" style="ellipse;whiteSpace=wrap;html=1;align=center;aspect=fixed;fillColor=none;strokeColor=none;resizable=0;perimeter=centerPerimeter;rotatable=0;allowArrows=0;points=[];outlineConnect=1;" vertex="1" parent="1">
          <mxGeometry x="1425" y="480" width="10" height="10" as="geometry" />
        </mxCell>
        <mxCell id="_hXt0ZtncEYP2eF8u2ab-107" value="&lt;b&gt;UserAuth&lt;/b&gt;" style="html=1;dropTarget=0;whiteSpace=wrap;" vertex="1" parent="1">
          <mxGeometry x="1265" y="520" width="180" height="60" as="geometry" />
        </mxCell>
        <mxCell id="_hXt0ZtncEYP2eF8u2ab-108" value="" style="shape=module;jettyWidth=8;jettyHeight=4;" vertex="1" parent="_hXt0ZtncEYP2eF8u2ab-107">
          <mxGeometry x="1" width="20" height="20" relative="1" as="geometry">
            <mxPoint x="-27" y="7" as="offset" />
          </mxGeometry>
        </mxCell>
        <mxCell id="_hXt0ZtncEYP2eF8u2ab-110" value="" style="rounded=0;orthogonalLoop=1;jettySize=auto;html=1;endArrow=oval;endFill=0;sketch=0;sourcePerimeterSpacing=0;targetPerimeterSpacing=0;endSize=10;exitX=0.5;exitY=1;exitDx=0;exitDy=0;" edge="1" parent="1" source="_hXt0ZtncEYP2eF8u2ab-98">
          <mxGeometry relative="1" as="geometry">
            <mxPoint x="1400" y="405" as="sourcePoint" />
            <mxPoint x="1590" y="450" as="targetPoint" />
          </mxGeometry>
        </mxCell>
        <mxCell id="_hXt0ZtncEYP2eF8u2ab-111" value="" style="ellipse;whiteSpace=wrap;html=1;align=center;aspect=fixed;fillColor=none;strokeColor=none;resizable=0;perimeter=centerPerimeter;rotatable=0;allowArrows=0;points=[];outlineConnect=1;" vertex="1" parent="1">
          <mxGeometry x="1415" y="400" width="10" height="10" as="geometry" />
        </mxCell>
        <mxCell id="_hXt0ZtncEYP2eF8u2ab-112" value="" style="strokeWidth=2;html=1;shape=mxgraph.flowchart.database;whiteSpace=wrap;" vertex="1" parent="1">
          <mxGeometry x="1560" y="80" width="60" height="60" as="geometry" />
        </mxCell>
        <mxCell id="_hXt0ZtncEYP2eF8u2ab-113" value="UserData DB" style="text;align=center;fontStyle=1;verticalAlign=middle;spacingLeft=3;spacingRight=3;strokeColor=none;rotatable=0;points=[[0,0.5],[1,0.5]];portConstraint=eastwest;html=1;" vertex="1" parent="1">
          <mxGeometry x="1550" y="140" width="80" height="26" as="geometry" />
        </mxCell>
        <mxCell id="_hXt0ZtncEYP2eF8u2ab-114" value="" style="rounded=0;orthogonalLoop=1;jettySize=auto;html=1;endArrow=oval;endFill=0;sketch=0;sourcePerimeterSpacing=0;targetPerimeterSpacing=0;endSize=10;exitX=0.224;exitY=0.002;exitDx=0;exitDy=0;exitPerimeter=0;" edge="1" parent="1" source="_hXt0ZtncEYP2eF8u2ab-48">
          <mxGeometry relative="1" as="geometry">
            <mxPoint x="1600" y="320" as="sourcePoint" />
            <mxPoint x="1540" y="170" as="targetPoint" />
          </mxGeometry>
        </mxCell>
        <mxCell id="_hXt0ZtncEYP2eF8u2ab-115" value="" style="rounded=0;orthogonalLoop=1;jettySize=auto;html=1;endArrow=oval;endFill=0;sketch=0;sourcePerimeterSpacing=0;targetPerimeterSpacing=0;endSize=10;exitX=1;exitY=0.5;exitDx=0;exitDy=0;exitPerimeter=0;" edge="1" parent="1" source="_hXt0ZtncEYP2eF8u2ab-112">
          <mxGeometry relative="1" as="geometry">
            <mxPoint x="1555" y="260" as="sourcePoint" />
            <mxPoint x="1640" y="170" as="targetPoint" />
            <Array as="points">
              <mxPoint x="1640" y="110" />
            </Array>
          </mxGeometry>
        </mxCell>
        <mxCell id="_hXt0ZtncEYP2eF8u2ab-118" value="" style="rounded=0;orthogonalLoop=1;jettySize=auto;html=1;endArrow=halfCircle;endFill=0;endSize=6;strokeWidth=1;sketch=0;exitX=0;exitY=0.5;exitDx=0;exitDy=0;exitPerimeter=0;" edge="1" parent="1" source="_hXt0ZtncEYP2eF8u2ab-112">
          <mxGeometry relative="1" as="geometry">
            <mxPoint x="1440" y="325" as="sourcePoint" />
            <mxPoint x="1540" y="170" as="targetPoint" />
            <Array as="points">
              <mxPoint x="1540" y="110" />
            </Array>
          </mxGeometry>
        </mxCell>
        <mxCell id="_hXt0ZtncEYP2eF8u2ab-120" value="" style="ellipse;whiteSpace=wrap;html=1;align=center;aspect=fixed;fillColor=none;strokeColor=none;resizable=0;perimeter=centerPerimeter;rotatable=0;allowArrows=0;points=[];outlineConnect=1;" vertex="1" parent="1">
          <mxGeometry x="1415" y="320" width="10" height="10" as="geometry" />
        </mxCell>
        <mxCell id="_hXt0ZtncEYP2eF8u2ab-121" value="" style="rounded=0;orthogonalLoop=1;jettySize=auto;html=1;endArrow=halfCircle;endFill=0;endSize=6;strokeWidth=1;sketch=0;" edge="1" parent="1">
          <mxGeometry relative="1" as="geometry">
            <mxPoint x="1640" y="200" as="sourcePoint" />
            <mxPoint x="1640" y="170" as="targetPoint" />
            <Array as="points" />
          </mxGeometry>
        </mxCell>
        <mxCell id="_hXt0ZtncEYP2eF8u2ab-122" value="&lt;b&gt;PersonalDataHolder&lt;/b&gt;" style="html=1;dropTarget=0;whiteSpace=wrap;" vertex="1" parent="1">
          <mxGeometry x="1265" y="420" width="180" height="60" as="geometry" />
        </mxCell>
        <mxCell id="_hXt0ZtncEYP2eF8u2ab-123" value="" style="shape=module;jettyWidth=8;jettyHeight=4;" vertex="1" parent="_hXt0ZtncEYP2eF8u2ab-122">
          <mxGeometry x="1" width="20" height="20" relative="1" as="geometry">
            <mxPoint x="-27" y="7" as="offset" />
          </mxGeometry>
        </mxCell>
        <mxCell id="_hXt0ZtncEYP2eF8u2ab-124" value="User entrega identificador&lt;div style=&quot;font-size: 10px;&quot;&gt;&amp;nbsp;para ver datos (ej: FaceID)&lt;/div&gt;" style="text;align=center;fontStyle=0;verticalAlign=middle;spacingLeft=3;spacingRight=3;strokeColor=none;rotatable=0;points=[[0,0.5],[1,0.5]];portConstraint=eastwest;html=1;fontSize=10;" vertex="1" parent="1">
          <mxGeometry x="1155" y="670" width="60" height="60" as="geometry" />
        </mxCell>
        <mxCell id="_hXt0ZtncEYP2eF8u2ab-125" value="" style="rounded=0;orthogonalLoop=1;jettySize=auto;html=1;endArrow=halfCircle;endFill=0;endSize=6;strokeWidth=1;sketch=0;exitX=0;exitY=0.25;exitDx=0;exitDy=0;" edge="1" parent="1" source="_hXt0ZtncEYP2eF8u2ab-107">
          <mxGeometry relative="1" as="geometry">
            <mxPoint x="1460" y="565" as="sourcePoint" />
            <mxPoint x="1240" y="535" as="targetPoint" />
          </mxGeometry>
        </mxCell>
        <mxCell id="_hXt0ZtncEYP2eF8u2ab-126" value="" style="rounded=0;orthogonalLoop=1;jettySize=auto;html=1;endArrow=oval;endFill=0;sketch=0;sourcePerimeterSpacing=0;targetPerimeterSpacing=0;endSize=10;exitX=1;exitY=0.25;exitDx=0;exitDy=0;" edge="1" parent="1" source="_hXt0ZtncEYP2eF8u2ab-89">
          <mxGeometry relative="1" as="geometry">
            <mxPoint x="1420" y="565" as="sourcePoint" />
            <mxPoint x="1240" y="535" as="targetPoint" />
          </mxGeometry>
        </mxCell>
        <mxCell id="_hXt0ZtncEYP2eF8u2ab-127" value="" style="ellipse;whiteSpace=wrap;html=1;align=center;aspect=fixed;fillColor=none;strokeColor=none;resizable=0;perimeter=centerPerimeter;rotatable=0;allowArrows=0;points=[];outlineConnect=1;" vertex="1" parent="1">
          <mxGeometry x="1435" y="560" width="10" height="10" as="geometry" />
        </mxCell>
        <mxCell id="_hXt0ZtncEYP2eF8u2ab-130" value="" style="rounded=0;orthogonalLoop=1;jettySize=auto;html=1;endArrow=halfCircle;endFill=0;endSize=6;strokeWidth=1;sketch=0;exitX=1;exitY=0.75;exitDx=0;exitDy=0;" edge="1" parent="1" source="_hXt0ZtncEYP2eF8u2ab-89">
          <mxGeometry relative="1" as="geometry">
            <mxPoint x="1265" y="570" as="sourcePoint" />
            <mxPoint x="1240" y="565" as="targetPoint" />
          </mxGeometry>
        </mxCell>
        <mxCell id="_hXt0ZtncEYP2eF8u2ab-131" value="" style="rounded=0;orthogonalLoop=1;jettySize=auto;html=1;endArrow=oval;endFill=0;sketch=0;sourcePerimeterSpacing=0;targetPerimeterSpacing=0;endSize=10;exitX=0;exitY=0.75;exitDx=0;exitDy=0;" edge="1" parent="1" source="_hXt0ZtncEYP2eF8u2ab-107">
          <mxGeometry relative="1" as="geometry">
            <mxPoint x="1225" y="570" as="sourcePoint" />
            <mxPoint x="1240" y="565" as="targetPoint" />
          </mxGeometry>
        </mxCell>
        <mxCell id="_hXt0ZtncEYP2eF8u2ab-133" value="" style="rounded=0;orthogonalLoop=1;jettySize=auto;html=1;endArrow=halfCircle;endFill=0;endSize=6;strokeWidth=1;sketch=0;exitX=1;exitY=0.5;exitDx=0;exitDy=0;" edge="1" parent="1" source="_hXt0ZtncEYP2eF8u2ab-122">
          <mxGeometry relative="1" as="geometry">
            <mxPoint x="1610" y="340" as="sourcePoint" />
            <mxPoint x="1590" y="450" as="targetPoint" />
            <Array as="points" />
          </mxGeometry>
        </mxCell>
        <mxCell id="_hXt0ZtncEYP2eF8u2ab-134" value="" style="rounded=0;orthogonalLoop=1;jettySize=auto;html=1;endArrow=halfCircle;endFill=0;endSize=6;strokeWidth=1;sketch=0;exitX=0.5;exitY=1;exitDx=0;exitDy=0;" edge="1" parent="1" source="_hXt0ZtncEYP2eF8u2ab-122">
          <mxGeometry relative="1" as="geometry">
            <mxPoint x="1312.5" y="490" as="sourcePoint" />
            <mxPoint x="1355" y="500" as="targetPoint" />
          </mxGeometry>
        </mxCell>
        <mxCell id="_hXt0ZtncEYP2eF8u2ab-135" value="" style="rounded=0;orthogonalLoop=1;jettySize=auto;html=1;endArrow=oval;endFill=0;sketch=0;sourcePerimeterSpacing=0;targetPerimeterSpacing=0;endSize=10;exitX=0.5;exitY=0;exitDx=0;exitDy=0;" edge="1" parent="1" source="_hXt0ZtncEYP2eF8u2ab-107">
          <mxGeometry relative="1" as="geometry">
            <mxPoint x="1345" y="520" as="sourcePoint" />
            <mxPoint x="1355" y="500" as="targetPoint" />
          </mxGeometry>
        </mxCell>
        <mxCell id="_hXt0ZtncEYP2eF8u2ab-136" value="" style="ellipse;whiteSpace=wrap;html=1;align=center;aspect=fixed;fillColor=none;strokeColor=none;resizable=0;perimeter=centerPerimeter;rotatable=0;allowArrows=0;points=[];outlineConnect=1;" vertex="1" parent="1">
          <mxGeometry x="1392.5" y="490" width="10" height="10" as="geometry" />
        </mxCell>
        <mxCell id="_hXt0ZtncEYP2eF8u2ab-138" value="" style="rounded=0;orthogonalLoop=1;jettySize=auto;html=1;endArrow=halfCircle;endFill=0;endSize=6;strokeWidth=1;sketch=0;exitX=0.5;exitY=1;exitDx=0;exitDy=0;" edge="1" parent="1" source="_hXt0ZtncEYP2eF8u2ab-89">
          <mxGeometry relative="1" as="geometry">
            <mxPoint x="1300" y="645" as="sourcePoint" />
            <mxPoint x="1130" y="680" as="targetPoint" />
          </mxGeometry>
        </mxCell>
        <mxCell id="_hXt0ZtncEYP2eF8u2ab-139" value="" style="rounded=0;orthogonalLoop=1;jettySize=auto;html=1;endArrow=oval;endFill=0;sketch=0;sourcePerimeterSpacing=0;targetPerimeterSpacing=0;endSize=10;" edge="1" parent="1">
          <mxGeometry relative="1" as="geometry">
            <mxPoint x="1260" y="680" as="sourcePoint" />
            <mxPoint x="1130" y="680" as="targetPoint" />
          </mxGeometry>
        </mxCell>
        <mxCell id="_hXt0ZtncEYP2eF8u2ab-140" value="" style="ellipse;whiteSpace=wrap;html=1;align=center;aspect=fixed;fillColor=none;strokeColor=none;resizable=0;perimeter=centerPerimeter;rotatable=0;allowArrows=0;points=[];outlineConnect=1;" vertex="1" parent="1">
          <mxGeometry x="1275" y="640" width="10" height="10" as="geometry" />
        </mxCell>
        <mxCell id="_hXt0ZtncEYP2eF8u2ab-142" value="" style="rounded=0;orthogonalLoop=1;jettySize=auto;html=1;endArrow=oval;endFill=0;sketch=0;sourcePerimeterSpacing=0;targetPerimeterSpacing=0;endSize=10;exitX=0.75;exitY=1;exitDx=0;exitDy=0;" edge="1" parent="1" source="_hXt0ZtncEYP2eF8u2ab-89">
          <mxGeometry relative="1" as="geometry">
            <mxPoint x="1180" y="625" as="sourcePoint" />
            <mxPoint x="1175" y="650" as="targetPoint" />
          </mxGeometry>
        </mxCell>
        <mxCell id="_hXt0ZtncEYP2eF8u2ab-143" value="" style="ellipse;whiteSpace=wrap;html=1;align=center;aspect=fixed;fillColor=none;strokeColor=none;resizable=0;perimeter=centerPerimeter;rotatable=0;allowArrows=0;points=[];outlineConnect=1;" vertex="1" parent="1">
          <mxGeometry x="1195" y="620" width="10" height="10" as="geometry" />
        </mxCell>
        <mxCell id="_hXt0ZtncEYP2eF8u2ab-144" value="User recibe&amp;nbsp;&lt;div&gt;los datos&lt;/div&gt;" style="text;align=center;fontStyle=0;verticalAlign=middle;spacingLeft=3;spacingRight=3;strokeColor=none;rotatable=0;points=[[0,0.5],[1,0.5]];portConstraint=eastwest;html=1;fontSize=10;" vertex="1" parent="1">
          <mxGeometry x="1195" y="600" width="60" height="60" as="geometry" />
        </mxCell>
        <mxCell id="_hXt0ZtncEYP2eF8u2ab-145" value="Intérprete de&amp;nbsp;&lt;div&gt;datos para mayor&lt;/div&gt;&lt;div&gt;seguridad&lt;/div&gt;" style="text;align=center;fontStyle=0;verticalAlign=middle;spacingLeft=3;spacingRight=3;strokeColor=none;rotatable=0;points=[[0,0.5],[1,0.5]];portConstraint=eastwest;html=1;fontSize=10;" vertex="1" parent="1">
          <mxGeometry x="1620" y="367" width="60" height="73" as="geometry" />
        </mxCell>
        <mxCell id="_hXt0ZtncEYP2eF8u2ab-146" value="UserAuth para&lt;div&gt;comparar el token&lt;/div&gt;&lt;div&gt;dependiendo de&amp;nbsp;&lt;/div&gt;&lt;div&gt;datos entregados&lt;/div&gt;" style="text;align=center;fontStyle=0;verticalAlign=middle;spacingLeft=3;spacingRight=3;strokeColor=none;rotatable=0;points=[[0,0.5],[1,0.5]];portConstraint=eastwest;html=1;fontSize=10;" vertex="1" parent="1">
          <mxGeometry x="1480" y="513.5" width="60" height="73" as="geometry" />
        </mxCell>
        <mxCell id="_hXt0ZtncEYP2eF8u2ab-147" value="Cliente-Servidor entre&lt;div&gt;App y LegitSport Server&lt;/div&gt;&lt;div&gt;&lt;br&gt;&lt;/div&gt;" style="text;align=center;fontStyle=0;verticalAlign=middle;spacingLeft=3;spacingRight=3;strokeColor=none;rotatable=0;points=[[0,0.5],[1,0.5]];portConstraint=eastwest;html=1;fontSize=10;" vertex="1" parent="1">
          <mxGeometry x="1440" y="113" width="60" height="73" as="geometry" />
        </mxCell>
        <mxCell id="_hXt0ZtncEYP2eF8u2ab-148" value="Sistema que aplica&lt;div&gt;&quot;Basado en reglas&quot;&lt;/div&gt;" style="text;align=center;fontStyle=0;verticalAlign=middle;spacingLeft=3;spacingRight=3;strokeColor=none;rotatable=0;points=[[0,0.5],[1,0.5]];portConstraint=eastwest;html=1;fontSize=10;" vertex="1" parent="1">
          <mxGeometry x="940" y="367" width="60" height="73" as="geometry" />
        </mxCell>
        <mxCell id="_hXt0ZtncEYP2eF8u2ab-149" value="&lt;div&gt;Los sensores siguen el&lt;/div&gt;&lt;div&gt;estilo &quot;Basado&lt;/div&gt;&lt;div&gt;en eventos&quot;&lt;/div&gt;" style="text;align=center;fontStyle=0;verticalAlign=middle;spacingLeft=3;spacingRight=3;strokeColor=none;rotatable=0;points=[[0,0.5],[1,0.5]];portConstraint=eastwest;html=1;fontSize=10;" vertex="1" parent="1">
          <mxGeometry x="1245" y="20" width="60" height="73" as="geometry" />
        </mxCell>
        <mxCell id="_hXt0ZtncEYP2eF8u2ab-150" value="&lt;div&gt;Siguen el principio&lt;/div&gt;&lt;div&gt;&quot;Fire and Forget&quot;&lt;/div&gt;&lt;div&gt;visto en clases.&lt;/div&gt;" style="text;align=center;fontStyle=0;verticalAlign=middle;spacingLeft=3;spacingRight=3;strokeColor=none;rotatable=0;points=[[0,0.5],[1,0.5]];portConstraint=eastwest;html=1;fontSize=10;" vertex="1" parent="1">
          <mxGeometry x="1245" y="93" width="60" height="73" as="geometry" />
        </mxCell>
        <mxCell id="_hXt0ZtncEYP2eF8u2ab-151" value="" style="endArrow=classic;html=1;rounded=0;" edge="1" parent="1">
          <mxGeometry width="50" height="50" relative="1" as="geometry">
            <mxPoint x="1275" y="80.00230769230762" as="sourcePoint" />
            <mxPoint x="1275" y="109" as="targetPoint" />
          </mxGeometry>
        </mxCell>
        <mxCell id="_hXt0ZtncEYP2eF8u2ab-152" style="edgeStyle=orthogonalEdgeStyle;rounded=0;orthogonalLoop=1;jettySize=auto;html=1;" edge="1" parent="1" source="_hXt0ZtncEYP2eF8u2ab-122" target="_hXt0ZtncEYP2eF8u2ab-122">
          <mxGeometry relative="1" as="geometry" />
        </mxCell>
        <mxCell id="_hXt0ZtncEYP2eF8u2ab-158" value="&lt;b&gt;User&lt;/b&gt;" style="shape=umlActor;verticalLabelPosition=bottom;verticalAlign=top;html=1;" vertex="1" parent="1">
          <mxGeometry x="140" y="80" width="30" height="60" as="geometry" />
        </mxCell>
        <mxCell id="_hXt0ZtncEYP2eF8u2ab-172" value="&lt;b&gt;IdentityProvider (IdP)&lt;/b&gt;" style="html=1;dropTarget=0;whiteSpace=wrap;" vertex="1" parent="1">
          <mxGeometry x="65" y="253" width="180" height="60" as="geometry" />
        </mxCell>
        <mxCell id="_hXt0ZtncEYP2eF8u2ab-173" value="" style="shape=module;jettyWidth=8;jettyHeight=4;" vertex="1" parent="_hXt0ZtncEYP2eF8u2ab-172">
          <mxGeometry x="1" width="20" height="20" relative="1" as="geometry">
            <mxPoint x="-27" y="7" as="offset" />
          </mxGeometry>
        </mxCell>
        <mxCell id="_hXt0ZtncEYP2eF8u2ab-175" value="" style="rounded=0;orthogonalLoop=1;jettySize=auto;html=1;endArrow=halfCircle;endFill=0;endSize=6;strokeWidth=1;sketch=0;exitX=0.5;exitY=0;exitDx=0;exitDy=0;" edge="1" parent="1" source="_hXt0ZtncEYP2eF8u2ab-172">
          <mxGeometry relative="1" as="geometry">
            <mxPoint x="175" y="161" as="sourcePoint" />
            <mxPoint x="155" y="210" as="targetPoint" />
          </mxGeometry>
        </mxCell>
        <mxCell id="_hXt0ZtncEYP2eF8u2ab-176" value="" style="rounded=0;orthogonalLoop=1;jettySize=auto;html=1;endArrow=oval;endFill=0;sketch=0;sourcePerimeterSpacing=0;targetPerimeterSpacing=0;endSize=10;" edge="1" parent="1">
          <mxGeometry relative="1" as="geometry">
            <mxPoint x="155" y="170" as="sourcePoint" />
            <mxPoint x="155" y="210" as="targetPoint" />
            <Array as="points" />
          </mxGeometry>
        </mxCell>
        <mxCell id="_hXt0ZtncEYP2eF8u2ab-179" value="&lt;b&gt;PhotoCapturer&lt;/b&gt;" style="html=1;dropTarget=0;whiteSpace=wrap;" vertex="1" parent="1">
          <mxGeometry x="65" y="465" width="180" height="60" as="geometry" />
        </mxCell>
        <mxCell id="_hXt0ZtncEYP2eF8u2ab-180" value="" style="shape=module;jettyWidth=8;jettyHeight=4;" vertex="1" parent="_hXt0ZtncEYP2eF8u2ab-179">
          <mxGeometry x="1" width="20" height="20" relative="1" as="geometry">
            <mxPoint x="-27" y="7" as="offset" />
          </mxGeometry>
        </mxCell>
        <mxCell id="_hXt0ZtncEYP2eF8u2ab-186" value="" style="rounded=0;orthogonalLoop=1;jettySize=auto;html=1;endArrow=halfCircle;endFill=0;endSize=6;strokeWidth=1;sketch=0;exitX=0;exitY=0.5;exitDx=0;exitDy=0;" edge="1" parent="1" source="_hXt0ZtncEYP2eF8u2ab-189">
          <mxGeometry relative="1" as="geometry">
            <mxPoint x="300" y="419.72" as="sourcePoint" />
            <mxPoint x="270" y="440" as="targetPoint" />
            <Array as="points">
              <mxPoint x="270" y="390" />
            </Array>
          </mxGeometry>
        </mxCell>
        <mxCell id="_hXt0ZtncEYP2eF8u2ab-187" value="" style="rounded=0;orthogonalLoop=1;jettySize=auto;html=1;endArrow=oval;endFill=0;sketch=0;sourcePerimeterSpacing=0;targetPerimeterSpacing=0;endSize=10;exitX=1;exitY=0.5;exitDx=0;exitDy=0;" edge="1" parent="1" source="_hXt0ZtncEYP2eF8u2ab-179">
          <mxGeometry relative="1" as="geometry">
            <mxPoint x="245" y="487.5" as="sourcePoint" />
            <mxPoint x="270" y="440" as="targetPoint" />
            <Array as="points">
              <mxPoint x="270" y="495" />
              <mxPoint x="270" y="470" />
            </Array>
          </mxGeometry>
        </mxCell>
        <mxCell id="_hXt0ZtncEYP2eF8u2ab-189" value="«processor»&lt;br&gt;&lt;b&gt;ComparationMotor&lt;/b&gt;" style="html=1;dropTarget=0;whiteSpace=wrap;" vertex="1" parent="1">
          <mxGeometry x="300" y="360" width="180" height="60" as="geometry" />
        </mxCell>
        <mxCell id="_hXt0ZtncEYP2eF8u2ab-190" value="" style="shape=module;jettyWidth=8;jettyHeight=4;" vertex="1" parent="_hXt0ZtncEYP2eF8u2ab-189">
          <mxGeometry x="1" width="20" height="20" relative="1" as="geometry">
            <mxPoint x="-27" y="7" as="offset" />
          </mxGeometry>
        </mxCell>
        <mxCell id="_hXt0ZtncEYP2eF8u2ab-192" value="«interface»&lt;br&gt;&lt;b&gt;PhotoEvaluator&lt;/b&gt;" style="html=1;dropTarget=0;whiteSpace=wrap;" vertex="1" parent="1">
          <mxGeometry x="300" y="465" width="180" height="60" as="geometry" />
        </mxCell>
        <mxCell id="_hXt0ZtncEYP2eF8u2ab-193" value="" style="shape=module;jettyWidth=8;jettyHeight=4;" vertex="1" parent="_hXt0ZtncEYP2eF8u2ab-192">
          <mxGeometry x="1" width="20" height="20" relative="1" as="geometry">
            <mxPoint x="-27" y="7" as="offset" />
          </mxGeometry>
        </mxCell>
        <mxCell id="_hXt0ZtncEYP2eF8u2ab-194" value="«processor»&lt;br&gt;&lt;b&gt;PhotoCompressor&lt;/b&gt;" style="html=1;dropTarget=0;whiteSpace=wrap;" vertex="1" parent="1">
          <mxGeometry x="300" y="250" width="180" height="60" as="geometry" />
        </mxCell>
        <mxCell id="_hXt0ZtncEYP2eF8u2ab-195" value="" style="shape=module;jettyWidth=8;jettyHeight=4;" vertex="1" parent="_hXt0ZtncEYP2eF8u2ab-194">
          <mxGeometry x="1" width="20" height="20" relative="1" as="geometry">
            <mxPoint x="-27" y="7" as="offset" />
          </mxGeometry>
        </mxCell>
        <mxCell id="_hXt0ZtncEYP2eF8u2ab-196" value="" style="rounded=0;orthogonalLoop=1;jettySize=auto;html=1;endArrow=halfCircle;endFill=0;endSize=6;strokeWidth=1;sketch=0;exitX=0.5;exitY=1;exitDx=0;exitDy=0;" edge="1" parent="1" source="_hXt0ZtncEYP2eF8u2ab-194">
          <mxGeometry relative="1" as="geometry">
            <mxPoint x="449.9999999999998" y="280" as="sourcePoint" />
            <mxPoint x="390" y="340" as="targetPoint" />
          </mxGeometry>
        </mxCell>
        <mxCell id="_hXt0ZtncEYP2eF8u2ab-197" value="" style="rounded=0;orthogonalLoop=1;jettySize=auto;html=1;endArrow=oval;endFill=0;sketch=0;sourcePerimeterSpacing=0;targetPerimeterSpacing=0;endSize=10;exitX=0.5;exitY=0;exitDx=0;exitDy=0;" edge="1" parent="1" source="_hXt0ZtncEYP2eF8u2ab-189">
          <mxGeometry relative="1" as="geometry">
            <mxPoint x="255" y="400" as="sourcePoint" />
            <mxPoint x="390" y="340" as="targetPoint" />
          </mxGeometry>
        </mxCell>
        <mxCell id="_hXt0ZtncEYP2eF8u2ab-198" value="&lt;b&gt;PhotoSortSystem&lt;/b&gt;" style="html=1;dropTarget=0;whiteSpace=wrap;" vertex="1" parent="1">
          <mxGeometry x="550" y="360" width="180" height="60" as="geometry" />
        </mxCell>
        <mxCell id="_hXt0ZtncEYP2eF8u2ab-199" value="" style="shape=module;jettyWidth=8;jettyHeight=4;" vertex="1" parent="_hXt0ZtncEYP2eF8u2ab-198">
          <mxGeometry x="1" width="20" height="20" relative="1" as="geometry">
            <mxPoint x="-27" y="7" as="offset" />
          </mxGeometry>
        </mxCell>
        <mxCell id="_hXt0ZtncEYP2eF8u2ab-200" value="" style="rounded=0;orthogonalLoop=1;jettySize=auto;html=1;endArrow=halfCircle;endFill=0;endSize=6;strokeWidth=1;sketch=0;exitX=0.5;exitY=0;exitDx=0;exitDy=0;" edge="1" target="_hXt0ZtncEYP2eF8u2ab-202" parent="1" source="_hXt0ZtncEYP2eF8u2ab-198">
          <mxGeometry relative="1" as="geometry">
            <mxPoint x="590" y="280" as="sourcePoint" />
            <Array as="points">
              <mxPoint x="640" y="280" />
            </Array>
          </mxGeometry>
        </mxCell>
        <mxCell id="_hXt0ZtncEYP2eF8u2ab-201" value="" style="rounded=0;orthogonalLoop=1;jettySize=auto;html=1;endArrow=oval;endFill=0;sketch=0;sourcePerimeterSpacing=0;targetPerimeterSpacing=0;endSize=10;exitX=1;exitY=0.5;exitDx=0;exitDy=0;" edge="1" target="_hXt0ZtncEYP2eF8u2ab-202" parent="1" source="_hXt0ZtncEYP2eF8u2ab-194">
          <mxGeometry relative="1" as="geometry">
            <mxPoint x="480" y="277" as="sourcePoint" />
          </mxGeometry>
        </mxCell>
        <mxCell id="_hXt0ZtncEYP2eF8u2ab-202" value="" style="ellipse;whiteSpace=wrap;html=1;align=center;aspect=fixed;fillColor=none;strokeColor=none;resizable=0;perimeter=centerPerimeter;rotatable=0;allowArrows=0;points=[];outlineConnect=1;" vertex="1" parent="1">
          <mxGeometry x="565" y="275" width="10" height="10" as="geometry" />
        </mxCell>
        <mxCell id="_hXt0ZtncEYP2eF8u2ab-208" value="" style="rounded=0;orthogonalLoop=1;jettySize=auto;html=1;endArrow=halfCircle;endFill=0;endSize=6;strokeWidth=1;sketch=0;exitX=1;exitY=0.25;exitDx=0;exitDy=0;" edge="1" parent="1" source="_hXt0ZtncEYP2eF8u2ab-192">
          <mxGeometry relative="1" as="geometry">
            <mxPoint x="500" y="375" as="sourcePoint" />
            <mxPoint x="540" y="480" as="targetPoint" />
          </mxGeometry>
        </mxCell>
        <mxCell id="_hXt0ZtncEYP2eF8u2ab-209" value="" style="rounded=0;orthogonalLoop=1;jettySize=auto;html=1;endArrow=oval;endFill=0;sketch=0;sourcePerimeterSpacing=0;targetPerimeterSpacing=0;endSize=10;exitX=0.5;exitY=1;exitDx=0;exitDy=0;" edge="1" parent="1" source="_hXt0ZtncEYP2eF8u2ab-198">
          <mxGeometry relative="1" as="geometry">
            <mxPoint x="460" y="375" as="sourcePoint" />
            <mxPoint x="540" y="480" as="targetPoint" />
            <Array as="points">
              <mxPoint x="640" y="480" />
            </Array>
          </mxGeometry>
        </mxCell>
        <mxCell id="_hXt0ZtncEYP2eF8u2ab-210" value="" style="ellipse;whiteSpace=wrap;html=1;align=center;aspect=fixed;fillColor=none;strokeColor=none;resizable=0;perimeter=centerPerimeter;rotatable=0;allowArrows=0;points=[];outlineConnect=1;" vertex="1" parent="1">
          <mxGeometry x="475" y="370" width="10" height="10" as="geometry" />
        </mxCell>
        <mxCell id="_hXt0ZtncEYP2eF8u2ab-211" value="" style="rounded=0;orthogonalLoop=1;jettySize=auto;html=1;endArrow=oval;endFill=0;sketch=0;sourcePerimeterSpacing=0;targetPerimeterSpacing=0;endSize=10;exitX=1;exitY=0.75;exitDx=0;exitDy=0;" edge="1" parent="1" source="_hXt0ZtncEYP2eF8u2ab-192">
          <mxGeometry relative="1" as="geometry">
            <mxPoint x="650" y="430" as="sourcePoint" />
            <mxPoint x="600" y="510" as="targetPoint" />
            <Array as="points">
              <mxPoint x="530" y="510" />
            </Array>
          </mxGeometry>
        </mxCell>
        <mxCell id="_hXt0ZtncEYP2eF8u2ab-212" value="" style="strokeWidth=2;html=1;shape=mxgraph.flowchart.database;whiteSpace=wrap;" vertex="1" parent="1">
          <mxGeometry x="775" y="600" width="60" height="60" as="geometry" />
        </mxCell>
        <mxCell id="_hXt0ZtncEYP2eF8u2ab-213" value="" style="rounded=0;orthogonalLoop=1;jettySize=auto;html=1;endArrow=oval;endFill=0;sketch=0;sourcePerimeterSpacing=0;targetPerimeterSpacing=0;endSize=10;exitX=1;exitY=0.25;exitDx=0;exitDy=0;" edge="1" parent="1">
          <mxGeometry relative="1" as="geometry">
            <mxPoint x="725" y="615.34" as="sourcePoint" />
            <mxPoint x="745" y="615.34" as="targetPoint" />
            <Array as="points">
              <mxPoint x="745" y="615.34" />
            </Array>
          </mxGeometry>
        </mxCell>
        <mxCell id="_hXt0ZtncEYP2eF8u2ab-214" value="" style="rounded=0;orthogonalLoop=1;jettySize=auto;html=1;endArrow=halfCircle;endFill=0;endSize=6;strokeWidth=1;sketch=0;exitX=0;exitY=0.267;exitDx=0;exitDy=0;exitPerimeter=0;" edge="1" parent="1" source="_hXt0ZtncEYP2eF8u2ab-212">
          <mxGeometry relative="1" as="geometry">
            <mxPoint x="655" y="610" as="sourcePoint" />
            <mxPoint x="745" y="616" as="targetPoint" />
            <Array as="points" />
          </mxGeometry>
        </mxCell>
        <mxCell id="_hXt0ZtncEYP2eF8u2ab-215" value="" style="rounded=0;orthogonalLoop=1;jettySize=auto;html=1;endArrow=oval;endFill=0;sketch=0;sourcePerimeterSpacing=0;targetPerimeterSpacing=0;endSize=10;exitX=-0.014;exitY=0.743;exitDx=0;exitDy=0;exitPerimeter=0;" edge="1" parent="1" source="_hXt0ZtncEYP2eF8u2ab-212">
          <mxGeometry relative="1" as="geometry">
            <mxPoint x="773.3800000000001" y="645.22" as="sourcePoint" />
            <mxPoint x="755" y="644.78" as="targetPoint" />
            <Array as="points">
              <mxPoint x="755" y="644.78" />
            </Array>
          </mxGeometry>
        </mxCell>
        <mxCell id="_hXt0ZtncEYP2eF8u2ab-216" value="" style="rounded=0;orthogonalLoop=1;jettySize=auto;html=1;endArrow=halfCircle;endFill=0;endSize=6;strokeWidth=1;sketch=0;exitX=1;exitY=0.729;exitDx=0;exitDy=0;exitPerimeter=0;" edge="1" parent="1">
          <mxGeometry relative="1" as="geometry">
            <mxPoint x="725" y="644.08" as="sourcePoint" />
            <mxPoint x="755" y="644" as="targetPoint" />
            <Array as="points" />
          </mxGeometry>
        </mxCell>
        <mxCell id="_hXt0ZtncEYP2eF8u2ab-217" value="&lt;div&gt;«public»&lt;br&gt;&lt;/div&gt;&lt;b&gt;EvaluationSystem&lt;/b&gt;" style="html=1;dropTarget=0;whiteSpace=wrap;" vertex="1" parent="1">
          <mxGeometry x="550" y="600" width="180" height="60" as="geometry" />
        </mxCell>
        <mxCell id="_hXt0ZtncEYP2eF8u2ab-218" value="" style="shape=module;jettyWidth=8;jettyHeight=4;" vertex="1" parent="_hXt0ZtncEYP2eF8u2ab-217">
          <mxGeometry x="1" width="20" height="20" relative="1" as="geometry">
            <mxPoint x="-27" y="7" as="offset" />
          </mxGeometry>
        </mxCell>
        <mxCell id="_hXt0ZtncEYP2eF8u2ab-219" value="" style="rounded=0;orthogonalLoop=1;jettySize=auto;html=1;endArrow=halfCircle;endFill=0;endSize=6;strokeWidth=1;sketch=0;exitX=0.5;exitY=0;exitDx=0;exitDy=0;" edge="1" parent="1" source="_hXt0ZtncEYP2eF8u2ab-217">
          <mxGeometry relative="1" as="geometry">
            <mxPoint x="690" y="580" as="sourcePoint" />
            <mxPoint x="600" y="510" as="targetPoint" />
            <Array as="points">
              <mxPoint x="640" y="510" />
            </Array>
          </mxGeometry>
        </mxCell>
        <mxCell id="_hXt0ZtncEYP2eF8u2ab-221" value="PWA" style="text;align=center;fontStyle=1;verticalAlign=middle;spacingLeft=3;spacingRight=3;strokeColor=none;rotatable=0;points=[[0,0.5],[1,0.5]];portConstraint=eastwest;html=1;" vertex="1" parent="1">
          <mxGeometry x="30" y="220" width="80" height="26" as="geometry" />
        </mxCell>
        <mxCell id="_hXt0ZtncEYP2eF8u2ab-222" value="&lt;b&gt;PackFilter&lt;/b&gt;" style="html=1;dropTarget=0;whiteSpace=wrap;" vertex="1" parent="1">
          <mxGeometry x="550" y="700" width="180" height="60" as="geometry" />
        </mxCell>
        <mxCell id="_hXt0ZtncEYP2eF8u2ab-223" value="" style="shape=module;jettyWidth=8;jettyHeight=4;" vertex="1" parent="_hXt0ZtncEYP2eF8u2ab-222">
          <mxGeometry x="1" width="20" height="20" relative="1" as="geometry">
            <mxPoint x="-27" y="7" as="offset" />
          </mxGeometry>
        </mxCell>
        <mxCell id="_hXt0ZtncEYP2eF8u2ab-224" value="" style="rounded=0;orthogonalLoop=1;jettySize=auto;html=1;endArrow=halfCircle;endFill=0;endSize=6;strokeWidth=1;sketch=0;exitX=0.5;exitY=0;exitDx=0;exitDy=0;" edge="1" parent="1" source="_hXt0ZtncEYP2eF8u2ab-222">
          <mxGeometry relative="1" as="geometry">
            <mxPoint x="655" y="700" as="sourcePoint" />
            <mxPoint x="640" y="680" as="targetPoint" />
            <Array as="points">
              <mxPoint x="640" y="680" />
            </Array>
          </mxGeometry>
        </mxCell>
        <mxCell id="_hXt0ZtncEYP2eF8u2ab-225" value="" style="rounded=0;orthogonalLoop=1;jettySize=auto;html=1;endArrow=oval;endFill=0;sketch=0;sourcePerimeterSpacing=0;targetPerimeterSpacing=0;endSize=10;exitX=0.5;exitY=1;exitDx=0;exitDy=0;" edge="1" parent="1" source="_hXt0ZtncEYP2eF8u2ab-217">
          <mxGeometry relative="1" as="geometry">
            <mxPoint x="485" y="560" as="sourcePoint" />
            <mxPoint x="640" y="680" as="targetPoint" />
            <Array as="points" />
          </mxGeometry>
        </mxCell>
        <mxCell id="_hXt0ZtncEYP2eF8u2ab-226" value="&lt;div style=&quot;text-align: center;&quot;&gt;&lt;span style=&quot;text-wrap: nowrap;&quot;&gt;&lt;b&gt;Photo Packs&lt;/b&gt;&lt;/span&gt;&lt;/div&gt;&lt;div style=&quot;text-align: center;&quot;&gt;&lt;span style=&quot;text-wrap: nowrap;&quot;&gt;&lt;b&gt;DB&lt;/b&gt;&lt;/span&gt;&lt;/div&gt;" style="text;whiteSpace=wrap;html=1;" vertex="1" parent="1">
          <mxGeometry x="765" y="660" width="60" height="40" as="geometry" />
        </mxCell>
        <mxCell id="_hXt0ZtncEYP2eF8u2ab-230" value="&lt;b&gt;AuthChecker&lt;/b&gt;" style="html=1;dropTarget=0;whiteSpace=wrap;" vertex="1" parent="1">
          <mxGeometry x="65" y="360" width="180" height="60" as="geometry" />
        </mxCell>
        <mxCell id="_hXt0ZtncEYP2eF8u2ab-231" value="" style="shape=module;jettyWidth=8;jettyHeight=4;" vertex="1" parent="_hXt0ZtncEYP2eF8u2ab-230">
          <mxGeometry x="1" width="20" height="20" relative="1" as="geometry">
            <mxPoint x="-27" y="7" as="offset" />
          </mxGeometry>
        </mxCell>
        <mxCell id="_hXt0ZtncEYP2eF8u2ab-232" value="" style="rounded=0;orthogonalLoop=1;jettySize=auto;html=1;endArrow=oval;endFill=0;sketch=0;sourcePerimeterSpacing=0;targetPerimeterSpacing=0;endSize=10;exitX=0.5;exitY=1;exitDx=0;exitDy=0;" edge="1" parent="1" source="_hXt0ZtncEYP2eF8u2ab-230">
          <mxGeometry relative="1" as="geometry">
            <mxPoint x="255" y="505" as="sourcePoint" />
            <mxPoint x="155" y="440" as="targetPoint" />
            <Array as="points">
              <mxPoint x="155" y="430" />
            </Array>
          </mxGeometry>
        </mxCell>
        <mxCell id="_hXt0ZtncEYP2eF8u2ab-233" value="" style="rounded=0;orthogonalLoop=1;jettySize=auto;html=1;endArrow=halfCircle;endFill=0;endSize=6;strokeWidth=1;sketch=0;exitX=0.5;exitY=0;exitDx=0;exitDy=0;" edge="1" parent="1" source="_hXt0ZtncEYP2eF8u2ab-179">
          <mxGeometry relative="1" as="geometry">
            <mxPoint x="155" y="460" as="sourcePoint" />
            <mxPoint x="155" y="440" as="targetPoint" />
          </mxGeometry>
        </mxCell>
        <mxCell id="_hXt0ZtncEYP2eF8u2ab-235" value="" style="rounded=0;orthogonalLoop=1;jettySize=auto;html=1;endArrow=oval;endFill=0;sketch=0;sourcePerimeterSpacing=0;targetPerimeterSpacing=0;endSize=10;exitX=0.5;exitY=1;exitDx=0;exitDy=0;" edge="1" parent="1" source="_hXt0ZtncEYP2eF8u2ab-172">
          <mxGeometry relative="1" as="geometry">
            <mxPoint x="154.83" y="315" as="sourcePoint" />
            <mxPoint x="154.83" y="335" as="targetPoint" />
            <Array as="points">
              <mxPoint x="154.83" y="325" />
            </Array>
          </mxGeometry>
        </mxCell>
        <mxCell id="_hXt0ZtncEYP2eF8u2ab-236" value="" style="rounded=0;orthogonalLoop=1;jettySize=auto;html=1;endArrow=halfCircle;endFill=0;endSize=6;strokeWidth=1;sketch=0;exitX=0.5;exitY=0;exitDx=0;exitDy=0;" edge="1" parent="1">
          <mxGeometry relative="1" as="geometry">
            <mxPoint x="154.83" y="360" as="sourcePoint" />
            <mxPoint x="154.83" y="335" as="targetPoint" />
          </mxGeometry>
        </mxCell>
        <mxCell id="_hXt0ZtncEYP2eF8u2ab-244" value="" style="rounded=0;orthogonalLoop=1;jettySize=auto;html=1;endArrow=halfCircle;endFill=0;endSize=6;strokeWidth=1;sketch=0;exitX=1;exitY=0.5;exitDx=0;exitDy=0;" edge="1" parent="1" source="_hXt0ZtncEYP2eF8u2ab-249">
          <mxGeometry relative="1" as="geometry">
            <mxPoint x="455" y="860" as="sourcePoint" />
            <mxPoint x="505" y="760" as="targetPoint" />
            <Array as="points">
              <mxPoint x="505" y="780" />
            </Array>
          </mxGeometry>
        </mxCell>
        <mxCell id="_hXt0ZtncEYP2eF8u2ab-245" value="" style="rounded=0;orthogonalLoop=1;jettySize=auto;html=1;endArrow=oval;endFill=0;sketch=0;sourcePerimeterSpacing=0;targetPerimeterSpacing=0;endSize=10;exitX=0;exitY=0.5;exitDx=0;exitDy=0;" edge="1" parent="1" source="_hXt0ZtncEYP2eF8u2ab-222">
          <mxGeometry relative="1" as="geometry">
            <mxPoint x="440" y="725" as="sourcePoint" />
            <mxPoint x="505" y="760" as="targetPoint" />
            <Array as="points">
              <mxPoint x="505" y="730" />
            </Array>
          </mxGeometry>
        </mxCell>
        <mxCell id="_hXt0ZtncEYP2eF8u2ab-249" value="&lt;b&gt;AuctionManager&lt;/b&gt;" style="html=1;dropTarget=0;whiteSpace=wrap;" vertex="1" parent="1">
          <mxGeometry x="295" y="750" width="180" height="60" as="geometry" />
        </mxCell>
        <mxCell id="_hXt0ZtncEYP2eF8u2ab-250" value="" style="shape=module;jettyWidth=8;jettyHeight=4;" vertex="1" parent="_hXt0ZtncEYP2eF8u2ab-249">
          <mxGeometry x="1" width="20" height="20" relative="1" as="geometry">
            <mxPoint x="-27" y="7" as="offset" />
          </mxGeometry>
        </mxCell>
        <mxCell id="_hXt0ZtncEYP2eF8u2ab-251" value="" style="strokeWidth=2;html=1;shape=mxgraph.flowchart.database;whiteSpace=wrap;" vertex="1" parent="1">
          <mxGeometry x="180" y="880" width="60" height="60" as="geometry" />
        </mxCell>
        <mxCell id="_hXt0ZtncEYP2eF8u2ab-252" value="" style="rounded=0;orthogonalLoop=1;jettySize=auto;html=1;endArrow=halfCircle;endFill=0;endSize=6;strokeWidth=1;sketch=0;exitX=1;exitY=0.5;exitDx=0;exitDy=0;exitPerimeter=0;" edge="1" target="_hXt0ZtncEYP2eF8u2ab-254" parent="1" source="_hXt0ZtncEYP2eF8u2ab-251">
          <mxGeometry relative="1" as="geometry">
            <mxPoint x="-125" y="760" as="sourcePoint" />
            <Array as="points">
              <mxPoint x="270" y="910" />
            </Array>
          </mxGeometry>
        </mxCell>
        <mxCell id="_hXt0ZtncEYP2eF8u2ab-253" value="" style="rounded=0;orthogonalLoop=1;jettySize=auto;html=1;endArrow=oval;endFill=0;sketch=0;sourcePerimeterSpacing=0;targetPerimeterSpacing=0;endSize=10;exitX=0;exitY=0.5;exitDx=0;exitDy=0;" edge="1" target="_hXt0ZtncEYP2eF8u2ab-254" parent="1" source="_hXt0ZtncEYP2eF8u2ab-249">
          <mxGeometry relative="1" as="geometry">
            <mxPoint x="235" y="810" as="sourcePoint" />
            <Array as="points">
              <mxPoint x="270" y="780" />
            </Array>
          </mxGeometry>
        </mxCell>
        <mxCell id="_hXt0ZtncEYP2eF8u2ab-254" value="" style="ellipse;whiteSpace=wrap;html=1;align=center;aspect=fixed;fillColor=none;strokeColor=none;resizable=0;perimeter=centerPerimeter;rotatable=0;allowArrows=0;points=[];outlineConnect=1;" vertex="1" parent="1">
          <mxGeometry x="265" y="830" width="10" height="10" as="geometry" />
        </mxCell>
        <mxCell id="_hXt0ZtncEYP2eF8u2ab-255" value="&lt;b style=&quot;forced-color-adjust: none; color: rgb(0, 0, 0); font-family: Helvetica; font-size: 12px; font-style: normal; font-variant-ligatures: normal; font-variant-caps: normal; letter-spacing: normal; orphans: 2; text-indent: 0px; text-transform: none; widows: 2; word-spacing: 0px; -webkit-text-stroke-width: 0px; white-space: normal; background-color: rgb(251, 251, 251); text-decoration-thickness: initial; text-decoration-style: initial; text-decoration-color: initial;&quot;&gt;Auction&lt;/b&gt;&lt;div&gt;&lt;b style=&quot;forced-color-adjust: none; color: rgb(0, 0, 0); font-family: Helvetica; font-size: 12px; font-style: normal; font-variant-ligatures: normal; font-variant-caps: normal; letter-spacing: normal; orphans: 2; text-indent: 0px; text-transform: none; widows: 2; word-spacing: 0px; -webkit-text-stroke-width: 0px; white-space: normal; background-color: rgb(251, 251, 251); text-decoration-thickness: initial; text-decoration-style: initial; text-decoration-color: initial;&quot;&gt;Temporal DB&lt;/b&gt;&lt;/div&gt;" style="text;whiteSpace=wrap;html=1;align=center;" vertex="1" parent="1">
          <mxGeometry x="160" y="940" width="100" height="40" as="geometry" />
        </mxCell>
        <mxCell id="_hXt0ZtncEYP2eF8u2ab-259" value="HoloHeritage&lt;div&gt;Server&lt;/div&gt;" style="text;align=center;fontStyle=1;verticalAlign=middle;spacingLeft=3;spacingRight=3;strokeColor=none;rotatable=0;points=[[0,0.5],[1,0.5]];portConstraint=eastwest;html=1;" vertex="1" parent="1">
          <mxGeometry x="150" y="720" width="100" height="40" as="geometry" />
        </mxCell>
        <mxCell id="_hXt0ZtncEYP2eF8u2ab-260" value="&lt;b&gt;MotorSelector&lt;/b&gt;" style="html=1;dropTarget=0;whiteSpace=wrap;" vertex="1" parent="1">
          <mxGeometry x="295" y="850" width="180" height="60" as="geometry" />
        </mxCell>
        <mxCell id="_hXt0ZtncEYP2eF8u2ab-261" value="" style="shape=module;jettyWidth=8;jettyHeight=4;" vertex="1" parent="_hXt0ZtncEYP2eF8u2ab-260">
          <mxGeometry x="1" width="20" height="20" relative="1" as="geometry">
            <mxPoint x="-27" y="7" as="offset" />
          </mxGeometry>
        </mxCell>
        <mxCell id="_hXt0ZtncEYP2eF8u2ab-263" value="" style="rounded=0;orthogonalLoop=1;jettySize=auto;html=1;endArrow=oval;endFill=0;sketch=0;sourcePerimeterSpacing=0;targetPerimeterSpacing=0;endSize=10;exitX=0.5;exitY=1;exitDx=0;exitDy=0;" edge="1" parent="1">
          <mxGeometry relative="1" as="geometry">
            <mxPoint x="350" y="810" as="sourcePoint" />
            <mxPoint x="350" y="830" as="targetPoint" />
            <Array as="points" />
          </mxGeometry>
        </mxCell>
        <mxCell id="_hXt0ZtncEYP2eF8u2ab-264" value="" style="rounded=0;orthogonalLoop=1;jettySize=auto;html=1;endArrow=halfCircle;endFill=0;endSize=6;strokeWidth=1;sketch=0;exitX=0.5;exitY=0;exitDx=0;exitDy=0;" edge="1" parent="1">
          <mxGeometry relative="1" as="geometry">
            <mxPoint x="350" y="850" as="sourcePoint" />
            <mxPoint x="350" y="830" as="targetPoint" />
            <Array as="points">
              <mxPoint x="350" y="830" />
            </Array>
          </mxGeometry>
        </mxCell>
        <mxCell id="_hXt0ZtncEYP2eF8u2ab-268" value="" style="ellipse;whiteSpace=wrap;html=1;align=center;aspect=fixed;fillColor=none;strokeColor=none;resizable=0;perimeter=centerPerimeter;rotatable=0;allowArrows=0;points=[];outlineConnect=1;" vertex="1" parent="1">
          <mxGeometry x="525" y="810" width="10" height="10" as="geometry" />
        </mxCell>
        <mxCell id="_hXt0ZtncEYP2eF8u2ab-269" value="" style="endArrow=none;html=1;rounded=0;" edge="1" parent="1">
          <mxGeometry width="50" height="50" relative="1" as="geometry">
            <mxPoint x="290" y="970" as="sourcePoint" />
            <mxPoint x="480" y="970" as="targetPoint" />
          </mxGeometry>
        </mxCell>
        <mxCell id="_hXt0ZtncEYP2eF8u2ab-270" value="Motor A" style="html=1;whiteSpace=wrap;" vertex="1" parent="1">
          <mxGeometry x="265" y="1000" width="50" height="40" as="geometry" />
        </mxCell>
        <mxCell id="_hXt0ZtncEYP2eF8u2ab-271" value="Motor B" style="html=1;whiteSpace=wrap;" vertex="1" parent="1">
          <mxGeometry x="315" y="1000" width="50" height="40" as="geometry" />
        </mxCell>
        <mxCell id="_hXt0ZtncEYP2eF8u2ab-272" value="Motor C" style="html=1;whiteSpace=wrap;" vertex="1" parent="1">
          <mxGeometry x="365" y="1000" width="50" height="40" as="geometry" />
        </mxCell>
        <mxCell id="_hXt0ZtncEYP2eF8u2ab-273" value="..." style="text;align=center;fontStyle=1;verticalAlign=middle;spacingLeft=3;spacingRight=3;strokeColor=none;rotatable=0;points=[[0,0.5],[1,0.5]];portConstraint=eastwest;html=1;" vertex="1" parent="1">
          <mxGeometry x="390" y="1007" width="80" height="26" as="geometry" />
        </mxCell>
        <mxCell id="_hXt0ZtncEYP2eF8u2ab-275" value="Motor n" style="html=1;whiteSpace=wrap;" vertex="1" parent="1">
          <mxGeometry x="455" y="1000" width="50" height="40" as="geometry" />
        </mxCell>
        <mxCell id="_hXt0ZtncEYP2eF8u2ab-277" value="" style="endArrow=none;html=1;rounded=0;exitX=0.5;exitY=0;exitDx=0;exitDy=0;" edge="1" parent="1" source="_hXt0ZtncEYP2eF8u2ab-270">
          <mxGeometry width="50" height="50" relative="1" as="geometry">
            <mxPoint x="360" y="1000" as="sourcePoint" />
            <mxPoint x="290" y="970" as="targetPoint" />
          </mxGeometry>
        </mxCell>
        <mxCell id="_hXt0ZtncEYP2eF8u2ab-278" value="" style="endArrow=none;html=1;rounded=0;exitX=0.5;exitY=0;exitDx=0;exitDy=0;" edge="1" parent="1" source="_hXt0ZtncEYP2eF8u2ab-275">
          <mxGeometry width="50" height="50" relative="1" as="geometry">
            <mxPoint x="360" y="1000" as="sourcePoint" />
            <mxPoint x="480" y="970" as="targetPoint" />
          </mxGeometry>
        </mxCell>
        <mxCell id="_hXt0ZtncEYP2eF8u2ab-279" value="" style="endArrow=none;html=1;rounded=0;exitX=0.5;exitY=0;exitDx=0;exitDy=0;" edge="1" parent="1">
          <mxGeometry width="50" height="50" relative="1" as="geometry">
            <mxPoint x="389.62" y="1000" as="sourcePoint" />
            <mxPoint x="389.62" y="970" as="targetPoint" />
          </mxGeometry>
        </mxCell>
        <mxCell id="_hXt0ZtncEYP2eF8u2ab-280" value="" style="endArrow=none;html=1;rounded=0;exitX=0.5;exitY=0;exitDx=0;exitDy=0;" edge="1" parent="1">
          <mxGeometry width="50" height="50" relative="1" as="geometry">
            <mxPoint x="339.81" y="1000" as="sourcePoint" />
            <mxPoint x="339.81" y="970" as="targetPoint" />
          </mxGeometry>
        </mxCell>
        <mxCell id="_hXt0ZtncEYP2eF8u2ab-281" value="" style="endArrow=none;html=1;rounded=0;" edge="1" parent="1">
          <mxGeometry width="50" height="50" relative="1" as="geometry">
            <mxPoint x="390" y="1000" as="sourcePoint" />
            <mxPoint x="390" y="950" as="targetPoint" />
          </mxGeometry>
        </mxCell>
        <mxCell id="_hXt0ZtncEYP2eF8u2ab-282" value="" style="endArrow=none;html=1;rounded=0;" edge="1" parent="1">
          <mxGeometry width="50" height="50" relative="1" as="geometry">
            <mxPoint x="340" y="950" as="sourcePoint" />
            <mxPoint x="430" y="950" as="targetPoint" />
          </mxGeometry>
        </mxCell>
        <mxCell id="_hXt0ZtncEYP2eF8u2ab-283" value="" style="rounded=0;orthogonalLoop=1;jettySize=auto;html=1;endArrow=halfCircle;endFill=0;endSize=6;strokeWidth=1;sketch=0;" edge="1" parent="1">
          <mxGeometry relative="1" as="geometry">
            <mxPoint x="340" y="950" as="sourcePoint" />
            <mxPoint x="340" y="930" as="targetPoint" />
          </mxGeometry>
        </mxCell>
        <mxCell id="_hXt0ZtncEYP2eF8u2ab-284" value="" style="rounded=0;orthogonalLoop=1;jettySize=auto;html=1;endArrow=oval;endFill=0;sketch=0;sourcePerimeterSpacing=0;targetPerimeterSpacing=0;endSize=10;exitX=0.25;exitY=1;exitDx=0;exitDy=0;" edge="1" parent="1" source="_hXt0ZtncEYP2eF8u2ab-260">
          <mxGeometry relative="1" as="geometry">
            <mxPoint x="350" y="975" as="sourcePoint" />
            <mxPoint x="340" y="930" as="targetPoint" />
          </mxGeometry>
        </mxCell>
        <mxCell id="_hXt0ZtncEYP2eF8u2ab-286" value="" style="rounded=0;orthogonalLoop=1;jettySize=auto;html=1;endArrow=halfCircle;endFill=0;endSize=6;strokeWidth=1;sketch=0;exitX=0.75;exitY=1;exitDx=0;exitDy=0;" edge="1" parent="1" source="_hXt0ZtncEYP2eF8u2ab-260">
          <mxGeometry relative="1" as="geometry">
            <mxPoint x="390" y="975" as="sourcePoint" />
            <mxPoint x="430" y="930" as="targetPoint" />
          </mxGeometry>
        </mxCell>
        <mxCell id="_hXt0ZtncEYP2eF8u2ab-287" value="" style="rounded=0;orthogonalLoop=1;jettySize=auto;html=1;endArrow=oval;endFill=0;sketch=0;sourcePerimeterSpacing=0;targetPerimeterSpacing=0;endSize=10;" edge="1" parent="1">
          <mxGeometry relative="1" as="geometry">
            <mxPoint x="430" y="950" as="sourcePoint" />
            <mxPoint x="430" y="930" as="targetPoint" />
          </mxGeometry>
        </mxCell>
        <mxCell id="_hXt0ZtncEYP2eF8u2ab-291" value="" style="ellipse;whiteSpace=wrap;html=1;align=center;aspect=fixed;fillColor=none;strokeColor=none;resizable=0;perimeter=centerPerimeter;rotatable=0;allowArrows=0;points=[];outlineConnect=1;" vertex="1" parent="1">
          <mxGeometry x="185" y="950" width="10" height="10" as="geometry" />
        </mxCell>
        <mxCell id="_hXt0ZtncEYP2eF8u2ab-296" value="" style="rounded=0;orthogonalLoop=1;jettySize=auto;html=1;endArrow=oval;endFill=0;sketch=0;sourcePerimeterSpacing=0;targetPerimeterSpacing=0;endSize=10;exitX=0.722;exitY=0.007;exitDx=0;exitDy=0;exitPerimeter=0;" edge="1" parent="1">
          <mxGeometry relative="1" as="geometry">
            <mxPoint x="384.73" y="750.21" as="sourcePoint" />
            <mxPoint x="384.77" y="729.79" as="targetPoint" />
            <Array as="points" />
          </mxGeometry>
        </mxCell>
        <mxCell id="_hXt0ZtncEYP2eF8u2ab-297" value="" style="rounded=0;orthogonalLoop=1;jettySize=auto;html=1;endArrow=halfCircle;endFill=0;endSize=6;strokeWidth=1;sketch=0;" edge="1" parent="1">
          <mxGeometry relative="1" as="geometry">
            <mxPoint x="384.77" y="709.79" as="sourcePoint" />
            <mxPoint x="384.77" y="729.79" as="targetPoint" />
            <Array as="points">
              <mxPoint x="384.77" y="729.79" />
            </Array>
          </mxGeometry>
        </mxCell>
        <mxCell id="_hXt0ZtncEYP2eF8u2ab-298" value="&lt;b&gt;CloudStorage&lt;/b&gt;" style="html=1;dropTarget=0;whiteSpace=wrap;" vertex="1" parent="1">
          <mxGeometry x="295" y="650" width="180" height="60" as="geometry" />
        </mxCell>
        <mxCell id="_hXt0ZtncEYP2eF8u2ab-299" value="" style="shape=module;jettyWidth=8;jettyHeight=4;" vertex="1" parent="_hXt0ZtncEYP2eF8u2ab-298">
          <mxGeometry x="1" width="20" height="20" relative="1" as="geometry">
            <mxPoint x="-27" y="7" as="offset" />
          </mxGeometry>
        </mxCell>
        <mxCell id="_hXt0ZtncEYP2eF8u2ab-300" value="" style="rounded=0;orthogonalLoop=1;jettySize=auto;html=1;endArrow=oval;endFill=0;sketch=0;sourcePerimeterSpacing=0;targetPerimeterSpacing=0;endSize=10;exitX=0.722;exitY=0.007;exitDx=0;exitDy=0;exitPerimeter=0;" edge="1" parent="1">
          <mxGeometry relative="1" as="geometry">
            <mxPoint x="429.81" y="850.42" as="sourcePoint" />
            <mxPoint x="429.84999999999997" y="829.9999999999999" as="targetPoint" />
            <Array as="points" />
          </mxGeometry>
        </mxCell>
        <mxCell id="_hXt0ZtncEYP2eF8u2ab-301" value="" style="rounded=0;orthogonalLoop=1;jettySize=auto;html=1;endArrow=halfCircle;endFill=0;endSize=6;strokeWidth=1;sketch=0;" edge="1" parent="1">
          <mxGeometry relative="1" as="geometry">
            <mxPoint x="429.84999999999997" y="809.9999999999999" as="sourcePoint" />
            <mxPoint x="429.84999999999997" y="829.9999999999999" as="targetPoint" />
            <Array as="points">
              <mxPoint x="429.84999999999997" y="829.9999999999999" />
            </Array>
          </mxGeometry>
        </mxCell>
      </root>
    </mxGraphModel>
  </diagram>
</mxfile>
